<mxfile host="app.diagrams.net" agent="Mozilla/5.0 (Macintosh; Intel Mac OS X 10_15_7) AppleWebKit/537.36 (KHTML, like Gecko) Chrome/134.0.0.0 Safari/537.36" version="26.2.12">
  <diagram name="第 1 页" id="94je1vxSOdhImaoz7nrM">
    <mxGraphModel dx="2063" dy="790" grid="1" gridSize="10" guides="1" tooltips="1" connect="1" arrows="1" fold="1" page="1" pageScale="1" pageWidth="827" pageHeight="1169" math="0" shadow="0">
      <root>
        <mxCell id="0" />
        <mxCell id="1" parent="0" />
        <mxCell id="Xx1ZGW-cqv-4vBmC9HKy-1" value="&lt;div&gt;&lt;div&gt;&lt;br&gt;&lt;/div&gt;&lt;/div&gt;" style="rounded=0;whiteSpace=wrap;html=1;" vertex="1" parent="1">
          <mxGeometry x="30" y="230" width="140" height="240" as="geometry" />
        </mxCell>
        <mxCell id="Xx1ZGW-cqv-4vBmC9HKy-2" value="dict" style="text;html=1;align=center;verticalAlign=middle;resizable=0;points=[];autosize=1;strokeColor=none;fillColor=none;fontSize=19;" vertex="1" parent="1">
          <mxGeometry x="15" y="193" width="50" height="40" as="geometry" />
        </mxCell>
        <mxCell id="Xx1ZGW-cqv-4vBmC9HKy-9" value="" style="edgeStyle=orthogonalEdgeStyle;rounded=0;orthogonalLoop=1;jettySize=auto;html=1;exitX=1;exitY=0.5;exitDx=0;exitDy=0;" edge="1" parent="1" source="Xx1ZGW-cqv-4vBmC9HKy-18" target="Xx1ZGW-cqv-4vBmC9HKy-19">
          <mxGeometry relative="1" as="geometry">
            <mxPoint x="354" y="380" as="targetPoint" />
            <Array as="points">
              <mxPoint x="290" y="355" />
            </Array>
          </mxGeometry>
        </mxCell>
        <mxCell id="Xx1ZGW-cqv-4vBmC9HKy-29" style="edgeStyle=orthogonalEdgeStyle;rounded=0;orthogonalLoop=1;jettySize=auto;html=1;entryX=0;entryY=0.5;entryDx=0;entryDy=0;" edge="1" parent="1" source="Xx1ZGW-cqv-4vBmC9HKy-3" target="Xx1ZGW-cqv-4vBmC9HKy-25">
          <mxGeometry relative="1" as="geometry" />
        </mxCell>
        <mxCell id="Xx1ZGW-cqv-4vBmC9HKy-3" value="ht_table[0]" style="rounded=0;whiteSpace=wrap;html=1;" vertex="1" parent="1">
          <mxGeometry x="40" y="300" width="100" height="30" as="geometry" />
        </mxCell>
        <mxCell id="Xx1ZGW-cqv-4vBmC9HKy-5" value="" style="whiteSpace=wrap;html=1;rounded=0;" vertex="1" parent="1">
          <mxGeometry x="489" y="131" width="120" height="60" as="geometry" />
        </mxCell>
        <mxCell id="Xx1ZGW-cqv-4vBmC9HKy-7" value="dictEntry" style="text;html=1;align=center;verticalAlign=middle;resizable=0;points=[];autosize=1;strokeColor=none;fillColor=none;fontSize=14;" vertex="1" parent="1">
          <mxGeometry x="470" y="102" width="80" height="30" as="geometry" />
        </mxCell>
        <mxCell id="Xx1ZGW-cqv-4vBmC9HKy-24" style="edgeStyle=orthogonalEdgeStyle;rounded=0;orthogonalLoop=1;jettySize=auto;html=1;entryX=0.5;entryY=1;entryDx=0;entryDy=0;" edge="1" parent="1" source="Xx1ZGW-cqv-4vBmC9HKy-11" target="Xx1ZGW-cqv-4vBmC9HKy-13">
          <mxGeometry relative="1" as="geometry">
            <Array as="points">
              <mxPoint x="549" y="211" />
              <mxPoint x="670" y="211" />
            </Array>
          </mxGeometry>
        </mxCell>
        <mxCell id="Xx1ZGW-cqv-4vBmC9HKy-11" value="next" style="whiteSpace=wrap;html=1;rounded=0;" vertex="1" parent="1">
          <mxGeometry x="509" y="141" width="80" height="40" as="geometry" />
        </mxCell>
        <mxCell id="Xx1ZGW-cqv-4vBmC9HKy-13" value="" style="whiteSpace=wrap;html=1;rounded=0;" vertex="1" parent="1">
          <mxGeometry x="609" y="131" width="120" height="60" as="geometry" />
        </mxCell>
        <mxCell id="Xx1ZGW-cqv-4vBmC9HKy-14" value="next" style="whiteSpace=wrap;html=1;rounded=0;" vertex="1" parent="1">
          <mxGeometry x="629" y="141" width="80" height="40" as="geometry" />
        </mxCell>
        <mxCell id="Xx1ZGW-cqv-4vBmC9HKy-16" value="&lt;span style=&quot;font-size: 14px;&quot;&gt;dictEntry&lt;/span&gt;" style="text;html=1;align=center;verticalAlign=middle;resizable=0;points=[];autosize=1;strokeColor=none;fillColor=none;" vertex="1" parent="1">
          <mxGeometry x="599" y="99" width="80" height="30" as="geometry" />
        </mxCell>
        <mxCell id="Xx1ZGW-cqv-4vBmC9HKy-17" value="version 7.0.15" style="text;html=1;align=center;verticalAlign=middle;resizable=0;points=[];autosize=1;strokeColor=none;fillColor=none;fontSize=19;" vertex="1" parent="1">
          <mxGeometry x="-40" y="113" width="140" height="40" as="geometry" />
        </mxCell>
        <mxCell id="Xx1ZGW-cqv-4vBmC9HKy-18" value="ht_table[1]" style="rounded=0;whiteSpace=wrap;html=1;" vertex="1" parent="1">
          <mxGeometry x="40" y="340" width="100" height="30" as="geometry" />
        </mxCell>
        <mxCell id="Xx1ZGW-cqv-4vBmC9HKy-19" value="null" style="text;html=1;align=center;verticalAlign=middle;resizable=0;points=[];autosize=1;strokeColor=none;fillColor=none;" vertex="1" parent="1">
          <mxGeometry x="320" y="340" width="40" height="30" as="geometry" />
        </mxCell>
        <mxCell id="Xx1ZGW-cqv-4vBmC9HKy-23" value="dictEntry **ht_table&lt;div style=&quot;text-wrap-mode: nowrap;&quot;&gt;&lt;span style=&quot;text-wrap-mode: wrap;&quot;&gt;指针数组的数组&lt;/span&gt;&lt;/div&gt;" style="shape=note;whiteSpace=wrap;html=1;backgroundOutline=1;darkOpacity=0.05;fillColor=#E6E6E6;" vertex="1" parent="1">
          <mxGeometry x="-240" y="220" width="190" height="100" as="geometry" />
        </mxCell>
        <mxCell id="Xx1ZGW-cqv-4vBmC9HKy-25" value="" style="whiteSpace=wrap;html=1;rounded=0;" vertex="1" parent="1">
          <mxGeometry x="314" y="130" width="120" height="60" as="geometry" />
        </mxCell>
        <mxCell id="Xx1ZGW-cqv-4vBmC9HKy-30" style="edgeStyle=orthogonalEdgeStyle;rounded=0;orthogonalLoop=1;jettySize=auto;html=1;exitX=1;exitY=0.5;exitDx=0;exitDy=0;" edge="1" parent="1" source="Xx1ZGW-cqv-4vBmC9HKy-26">
          <mxGeometry relative="1" as="geometry">
            <mxPoint x="490" y="160" as="targetPoint" />
          </mxGeometry>
        </mxCell>
        <mxCell id="Xx1ZGW-cqv-4vBmC9HKy-26" value="next" style="whiteSpace=wrap;html=1;rounded=0;" vertex="1" parent="1">
          <mxGeometry x="334" y="140" width="80" height="40" as="geometry" />
        </mxCell>
        <mxCell id="Xx1ZGW-cqv-4vBmC9HKy-27" value="new entry" style="text;html=1;align=center;verticalAlign=middle;resizable=0;points=[];autosize=1;strokeColor=none;fillColor=none;" vertex="1" parent="1">
          <mxGeometry x="329" y="90" width="80" height="30" as="geometry" />
        </mxCell>
      </root>
    </mxGraphModel>
  </diagram>
</mxfile>
